<?xml version="1.0" encoding="iso-8859-1"?>
<!-- Generator: Adobe Illustrator 19.1.0, SVG Export Plug-In . SVG Version: 6.00 Build 0)  -->
<svg version="1.1" id="Capa_1" xmlns="http://www.w3.org/2000/svg" xmlns:xlink="http://www.w3.org/1999/xlink" x="0px" y="0px"
	 viewBox="0 0 313.679 313.679" style="enable-background:new 0 0 313.679 313.679;" xml:space="preserve">
<g>
	<g>
		<path d="M222.103,96.052V65.057h-39.436c2.719-4.524,4.287-9.815,4.287-15.467c0-16.605-13.509-30.115-30.115-30.115
			s-30.115,13.509-30.115,30.115c0,5.652,1.568,10.943,4.287,15.467H91.576v30.995H0v198.152h313.679V96.052H222.103z
			 M156.839,34.475c8.334,0,15.115,6.78,15.115,15.115s-6.78,15.115-15.115,15.115s-15.115-6.78-15.115-15.115
			S148.505,34.475,156.839,34.475z M106.576,80.057h100.526v28.205H106.576V80.057z M298.679,279.204H15V111.052h76.576v12.21
			h130.526v-12.21h76.576v168.152H298.679z"/>
		<path d="M103.91,187.97c4.027-4.816,6.455-11.011,6.455-17.764c0-15.294-12.443-27.737-27.737-27.737
			s-27.736,12.443-27.736,27.737c0,6.964,2.586,13.332,6.839,18.208c-13.432,7.459-22.545,21.788-22.545,38.21v23.27h88.093v-23.27
			C127.28,209.868,117.791,195.294,103.91,187.97z M82.629,157.469c7.023,0,12.737,5.714,12.737,12.737s-5.714,12.737-12.737,12.737
			s-12.736-5.714-12.736-12.737S75.606,157.469,82.629,157.469z M112.28,234.893H54.187v-8.27c0-15.815,12.866-28.681,28.681-28.681
			h0.731c15.815,0,28.681,12.866,28.681,28.681V234.893z"/>
		<rect x="165.292" y="146.771" width="107.778" height="15"/>
		<rect x="165.292" y="187.627" width="107.778" height="15"/>
		<rect x="165.292" y="228.485" width="107.778" height="15"/>
	</g>
	<g>
	</g>
	<g>
	</g>
	<g>
	</g>
	<g>
	</g>
	<g>
	</g>
	<g>
	</g>
	<g>
	</g>
	<g>
	</g>
	<g>
	</g>
	<g>
	</g>
	<g>
	</g>
	<g>
	</g>
	<g>
	</g>
	<g>
	</g>
	<g>
	</g>
</g>
<g>
</g>
<g>
</g>
<g>
</g>
<g>
</g>
<g>
</g>
<g>
</g>
<g>
</g>
<g>
</g>
<g>
</g>
<g>
</g>
<g>
</g>
<g>
</g>
<g>
</g>
<g>
</g>
<g>
</g>
</svg>
